<svg xmlns="http://www.w3.org/2000/svg" xmlns:xlink="http://www.w3.org/1999/xlink" width="283" height="283" viewBox="0 0 283 283"><defs><style>.a{fill:none;}.b{fill:#ecf0f3;}.c{fill:#4da5cf;}.d{fill:#c4daff;}.e,.s{fill:#fff;}.e{opacity:0.41;}.f{fill:#d4a03d;}.g{fill:#eeb343;}.h{fill:#e4eef6;}.i{fill:#50aad5;}.j{fill:#a1afcf;}.k{fill:#005d80;}.l{fill:#773829;}.m{fill:#26120d;}.n{fill:#ffc4c2;}.o{fill:#00a1b2;}.p{fill:#362f2f;}.q{fill:#ffadaa;}.r{fill:#fff89a;}.t{clip-path:url(#g);}.u{fill:#fafafa;}.v{fill:#b9eaf0;}.w{fill:#e69095;}.x{fill:#002a32;}.y{fill:#5c4556;}.z{fill:#3d283c;}.aa{fill:#ddd9eb;}.ab{fill:#f7e4bc;}.ac{fill:#fffffe;}.ad{fill:#ffa0a6;}.ae{fill:#fff3fd;}.af{fill:#efcf64;}.ag{fill:#fe8f84;}.ah{fill:#cf7e57;}.ai{fill:#eead32;}.aj{fill:#85dd8e;}.ak{fill:#f5ee94;}.al{fill:#e3dd89;}.am{filter:url(#e);}.an{filter:url(#c);}.ao{filter:url(#a);}</style><filter id="a" x="16" y="16" width="267" height="267" filterUnits="userSpaceOnUse"><feOffset dx="8" dy="8" input="SourceAlpha"/><feGaussianBlur stdDeviation="5" result="b"/><feFlood flood-opacity="0.18"/><feComposite operator="in" in2="b"/><feComposite in="SourceGraphic"/></filter><filter id="c" x="0" y="0" width="267" height="267" filterUnits="userSpaceOnUse"><feOffset dx="-8" dy="-8" input="SourceAlpha"/><feGaussianBlur stdDeviation="5" result="d"/><feFlood flood-color="#f9f5f5" flood-opacity="0.839"/><feComposite operator="in" in2="d"/><feComposite in="SourceGraphic"/></filter><filter id="e" x="21" y="110.527" width="240.9" height="148.465" filterUnits="userSpaceOnUse"><feOffset dy="3" input="SourceAlpha"/><feGaussianBlur stdDeviation="5" result="f"/><feFlood flood-opacity="0.161"/><feComposite operator="in" in2="f"/><feComposite in="SourceGraphic"/></filter><clipPath id="g"><path class="a" d="M199.089,98.635c0,1.955-2.152,3.531-4.8,3.522s-4.773-1.6-4.773-3.554c0-.457-15.158-8.542-15.22-9-1.179-8.907,9.98-12.79,19.787-13.749s22.98,10.963,17.84,18.308C211.761,94.382,199.089,98.351,199.089,98.635Z" transform="translate(-174.21 -75.801)"/></clipPath></defs><g transform="translate(-46 -38)"><g class="ao" transform="matrix(1, 0, 0, 1, 46, 38)"><circle class="b" cx="118.5" cy="118.5" r="118.5" transform="translate(23 23)"/></g><g class="an" transform="matrix(1, 0, 0, 1, 46, 38)"><circle class="b" cx="118.5" cy="118.5" r="118.5" transform="translate(23 23)"/></g><g transform="translate(81.982 92.652)"><g transform="translate(0.018)"><g class="am" transform="matrix(1, 0, 0, 1, -36, -54.65)"><path class="c" d="M208.572,204.429l-99.27-54.6a10.051,10.051,0,0,0-9.641,0L2.348,203.41a4.373,4.373,0,0,0,0,7.733l98.316,54.663a10.051,10.051,0,0,0,9.655.037l98.254-53.662a4.374,4.374,0,0,0,0-7.752Z" transform="translate(35.98 -26.07)"/></g><path class="d" d="M51.32,23.554v30L78.409,39.468,78.328,9.59Z" transform="translate(-26.836 -5.209)"/><path class="e" d="M61.419,28.73l-4.954,2.563c-.978,2.371-1.942,4.75-2.988,7.089-.682,1.517-1.432,3.01-2.157,4.495V53.113A167.223,167.223,0,0,0,61.419,28.73Z" transform="translate(-26.836 -15.607)"/><path class="e" d="M96.31,53.64c.988-2.54,1.909-5.111,2.864-7.66V40.53c-2.907,6.568-5.25,13.379-8.113,19.979l3.045-1.58C94.873,57.189,95.623,55.421,96.31,53.64Z" transform="translate(-47.609 -22.017)"/><path class="e" d="M64.646,49.133c2.214-4.591,4.143-9.318,5.966-14.064s3.508-9.414,5.474-14.037c1.017-2.4,2.052-4.787,3.045-7.2.262-.639.52-1.279.778-1.923l-4.376,2.261c-.124.219-.248.457-.368.658A70.955,70.955,0,0,0,71.2,23.864Q69.208,29.14,66.965,34.3C64.226,40.632,61.3,46.89,58.26,53.089L64.211,50C64.34,49.708,64.507,49.407,64.646,49.133Z" transform="translate(-30.464 -6.47)"/><path class="f" d="M76.2,0,44.85,16.211V51.662l.768.457L77.347,34.934,77.251.626ZM47.169,47.578v-30l27-13.964L74.259,33.5Z" transform="translate(-23.454)"/><path class="f" d="M73.8,23.016l3.871-2,.138,31.915L73.75,54.822Z" transform="translate(-38.561 -11.419)"/><path class="f" d="M76.566,39.5V35.29L47.52,50.309v4.266Z" transform="translate(-24.849 -19.17)"/><path class="g" d="M75.588,20.721l3.871-2L79.6,52.257,75.54,54.148Z" transform="translate(-39.496 -10.169)"/><path class="g" d="M78.356,40.751V36.54L49.31,51.563v4.262Z" transform="translate(-25.785 -19.849)"/><path class="g" d="M78.093,1.34,46.46,17.7V52.833L78.188,36.357ZM48.779,49.069v-30L75.788,5.108l.081,29.878Z" transform="translate(-24.295 -0.728)"/><path class="h" d="M307.6,1.1l41,22.917V53.844l-.659.379L306.62,31.065,306.7,1.621Z" transform="translate(-160.291 -0.598)"/><path class="f" d="M307.6,1.1l41,22.917V53.844l-.659.379L306.62,31.065,306.7,1.621Z" transform="translate(-160.291 -0.598)"/><path class="h" d="M310.426,7.05l38.31,21.414v26.9l-.616.352L309.51,34.073l.076-26.534Z" transform="translate(-161.802 -3.83)"/><path class="i" d="M347.216,48.636a17.676,17.676,0,0,0-11.521-1.95c-5.436.968-11.454,2.238-16.007-1.594-4.162-3.485-5.775-9.163-10.414-12.2a10.368,10.368,0,0,0-2.611-1.215l-.043,15.987,40.6,22.752Z" transform="translate(-160.291 -17.209)"/><path class="g" d="M306.7,2.24l41.24,23.044V54.843L306.62,32.278Zm39.264,49.355V26.472l-37.3-20.984L308.6,31.131Z" transform="translate(-160.291 -1.217)"/><path class="g" d="M262.688,203.6h-.11a1.058,1.058,0,0,1-.955-1.142l2.319-22.2a1.077,1.077,0,0,1,1.191-.934,1.055,1.055,0,0,1,.976,1.14l-2.319,22.2A1.077,1.077,0,0,1,262.688,203.6Z" transform="translate(-136.767 -97.407)"/><path class="g" d="M315.808,204.521a1.066,1.066,0,0,1-1.088-1.041V196.9a1.089,1.089,0,0,1,2.176,0v6.578a1.066,1.066,0,0,1-1.088,1.041Z" transform="translate(-164.525 -106.395)"/><path class="g" d="M359.207,211.012a1.071,1.071,0,0,1-1.069-.863l-4.3-23.972a1.048,1.048,0,0,1,.888-1.206,1.086,1.086,0,0,1,1.26.85l4.3,23.976a1.047,1.047,0,0,1-.888,1.2A1.273,1.273,0,0,1,359.207,211.012Z" transform="translate(-184.968 -100.472)"/><path class="g" d="M309.422,230.209a1.068,1.068,0,0,1-1.088-1l-.678-20.053a6.506,6.506,0,0,1,.745-3.239l.391-.745a1.115,1.115,0,0,1,1.412-.4,1.024,1.024,0,0,1,.535,1.313l-.391.745a4.52,4.52,0,0,0-.515,2.234l.678,20.053a1.062,1.062,0,0,1-1.055,1.073Z" transform="translate(-160.831 -111.177)"/><path class="j" d="M337.557,128.957l2.448-.877L339.27,148.6a8.458,8.458,0,0,1-3.723,6.066L317.24,166.3v-2.531l17.592-15.138Z" transform="translate(-165.843 -69.576)"/><path class="h" d="M284.111,101.62l-1.642,19.614c0,2.85-.954,4.248-4.949,6.167l-15.11,8.428L288.578,149.4l16.17-9.77a7.434,7.434,0,0,0,3.713-5.568l.434-19.482Z" transform="translate(-137.181 -55.202)"/><path class="d" d="M307.88,100.577l24.784,12.963,2.448-.877L310.176,99.7Z" transform="translate(-160.95 -54.159)"/><path class="d" d="M262.41,176.51V179l26.168,13.617v-2.531Z" transform="translate(-137.181 -95.884)"/><path class="k" d="M286.051,188.727s-16.17-1.649-17.5-11.748c0,0,8.681-3.686,14.6,1.8S286.051,188.727,286.051,188.727Z" transform="translate(-140.391 -95.481)"/><path class="l" d="M257.916,244.91a2.636,2.636,0,0,1-2.615.288,53.628,53.628,0,0,1-4.816,3.558c-.84.635-2.157,1.48-1.909,2.7.425,2.179,4.071,1.512,5.446.845s2.5-1.772,3.818-2.549c.926-.548,1.064-.375,1.207-1.494C259.11,247.577,258.155,244.882,257.916,244.91Z" transform="translate(-129.934 -133.04)"/><path class="m" d="M259.039,251.25c-.181,1.073-.291.914-1.212,1.453-1.322.786-2.491,1.923-3.861,2.59-1.274.612-4.443,1.224-5.336-.329.477,2.1,4.066,1.439,5.426.781s2.5-1.772,3.818-2.549c.926-.548,1.126-.548,1.279-1.019A2.923,2.923,0,0,0,259.039,251.25Z" transform="translate(-129.978 -136.485)"/><path class="n" d="M275.395,161.64c3.718.457,3.694,2.544,7.417,2.763a8.574,8.574,0,0,1-.444,3.22c-.983,3.5-17.038,10.871-17.062,10.89-.549.457-1.618.589-.807,2.718,2.453,6.441.239,9.446-.716,12.913a21.789,21.789,0,0,0-.558,5.532c-.554.767-1.379.84-2.615.288,0,0-1.332-14.836-1.909-25.548C259.249,171.182,270.212,164.545,275.395,161.64Z" transform="translate(-135.242 -87.806)"/><path class="l" d="M274.534,252.24a2.662,2.662,0,0,1-2.725.151,67.836,67.836,0,0,1-5.374,4.161c-.845.635-2.157,1.484-1.909,2.7.425,2.183,4.071,1.512,5.446.845s2.5-1.772,3.818-2.544c.931-.553,1.842-.84,1.99-1.96A8.334,8.334,0,0,0,274.534,252.24Z" transform="translate(-138.271 -137.022)"/><path class="m" d="M275.736,258.59c-.181,1.073-1.079,1.37-2,1.914-1.327.79-2.491,1.923-3.866,2.59-1.27.617-4.439,1.229-5.331-.329.477,2.1,4.066,1.439,5.426.781s2.5-1.772,3.818-2.544c.931-.553,1.842-.84,1.99-1.96A2.231,2.231,0,0,0,275.736,258.59Z" transform="translate(-138.294 -140.472)"/><path class="n" d="M297.284,159.19a16.784,16.784,0,0,1-9.111,1.169c.043,1.43.215,4.111.215,4.111-4.3,2.919-13.234,9.542-13.8,12.931,0,10.963,2.176,24.022,2.5,24.429a1.586,1.586,0,0,0,2.725-.151c0-6.564,1.532-4.951,1.637-13.187.024-1.777-.845-4.216-.845-4.983,0-1.553.363-2.567,1.289-2.7.024-.251,15.339-6.938,17.067-8.464,2.649-2.334,2.625-5.842,1.718-8.277C299.928,162.059,299.269,161.277,297.284,159.19Z" transform="translate(-143.548 -86.476)"/><path class="o" d="M296.848,160.662s5.059,7.619-1.68,13.2-9.1,5.628-9.1,5.628-2.649-9.044-8.591-10.963-8.9-.79-8.9-.79a34.5,34.5,0,0,1,12.633-7.952C289,157.04,296.848,160.662,296.848,160.662Z" transform="translate(-140.406 -86.24)"/><path class="n" d="M278.385,106.676a4.1,4.1,0,0,0-5.632,2.8c-1.594,5.216-1.685,9.186-1.623,14.27,0,0-8.223,6.057-8.209,6.075A12.244,12.244,0,0,1,258.769,131a7.61,7.61,0,0,0-4.3,2.471c-.6.6-.873,2.508-.449,2.654a2.731,2.731,0,0,0,2.238-1.046c.773-.845,2.864-1.224,3.207-.772s-.8-.078-1.613,1.023.477,1.777.7,1.192,1.933-.95,2.864-1.4a3.528,3.528,0,0,0,1.57-1.306c.129-.274.955-1.64.955-1.64l10.409-4.659a4.262,4.262,0,0,0,2.09-3.522l1.909-17.326Z" transform="translate(-132.691 -57.742)"/><path class="g" d="M296.322,106.271s-4.114-.534-5.321,3.389-.931,5.664-.931,5.664a4.419,4.419,0,0,0,5.6.621C299.047,114.032,296.322,106.271,296.322,106.271Z" transform="translate(-151.626 -57.715)"/><path class="g" d="M291.481,129.625c.477-1.009,2.319-1.37,1.6-5.07a25.674,25.674,0,0,1-1.3-5.582,4.813,4.813,0,0,1-1.179-1.448,4.014,4.014,0,0,1,.072-3.165A25.069,25.069,0,0,0,291.887,111c.353-2.512,1.341-4.321,2.563-4.76a15.07,15.07,0,0,1,5.684-.576c2.1.037,4.973,1.749,6.734,2.809,1.5.914,1.637,10.876.511,13.918-.239.639,1.4,3.9,2.21,7.738a3.832,3.832,0,0,1-2.8,4.449c-6.586,1.877-11.822.457-15.415-1.923C290.594,132.137,290.307,131.219,291.481,129.625Z" transform="translate(-151.767 -57.386)"/><path class="f" d="M304.83,136.052s3.083-.05,4.586-1.932C309.417,134.12,309.937,137.185,304.83,136.052Z" transform="translate(-159.356 -72.857)"/><path class="f" d="M298.667,152.3c.1.05.869,1.073,1.327,1.471,1.952,1.7,4.424,1.4,6.476.238a6.271,6.271,0,0,1-3.46,1.539C298.414,156.224,298.667,152.3,298.667,152.3Z" transform="translate(-156.133 -82.733)"/><path class="p" d="M319.564,71.23a3.21,3.21,0,1,1-3.207-3.07A3.141,3.141,0,0,1,319.564,71.23Z" transform="translate(-163.705 -37.026)"/><path class="q" d="M302.7,97.625v2.028c-4.415,6.957,3.966,7.117,5.426.982-1.179-2.024-.759-6.678-.759-6.678A29.349,29.349,0,0,0,302.7,97.625Z" transform="translate(-157.576 -51.033)"/><path class="p" d="M297.958,75.479c-1.976.078-4.357,3.43-2.563,5,1.379,1.2-.358,1.667.63,3.435s3.05,2.014,4.482-.649S299.934,75.406,297.958,75.479Z" transform="translate(-154.092 -41.001)"/><path class="n" d="M307.158,82.9a5.146,5.146,0,0,0-1.4-6.934,7.122,7.122,0,0,0-8.018.365c-.616,1.188-1,3.06-.477,6.061.7,5.8,2.959,5.8,3.737,5.979,2.639-.192,3.818-2.151,4.691-3.129A12.208,12.208,0,0,0,307.03,83.5,1.149,1.149,0,0,1,307.158,82.9Z" transform="translate(-155.27 -40.684)"/><path class="r" d="M308.47,73.252s1.565-2.32,3.517-1.494a7.082,7.082,0,0,1,3.751,3.873c.253.822-.706,2.056-1.408,1.316C312.679,75.2,310.155,72.685,308.47,73.252Z" transform="translate(-161.258 -38.884)"/><path class="p" d="M296.967,73.345c2.234-.356,4.372-1.485,7.331,1.827,1.513,1.69,2.916,3.723.921,7.445-.477.914-1.637,2.357-2.983,2.357.611-.854.181-3.44.148-3.426-.325-1.59.253-1.014-4.033-1.3-2.152.027-6.014-.16-6.558-2.695a4.441,4.441,0,0,1,1.265-4.006C294.084,72.569,295.406,73.6,296.967,73.345Z" transform="translate(-152.499 -39.585)"/><path class="p" d="M301.169,82.486a2.417,2.417,0,0,0-.993.21,2.039,2.039,0,0,0-1.938-1.256,1.829,1.829,0,1,0,0,3.654,2.3,2.3,0,0,0,.31-.023,1.935,1.935,0,0,1,1.317.32,2.37,2.37,0,0,0,1.3.375,1.683,1.683,0,1,0,0-3.28Z" transform="translate(-154.912 -44.24)"/><path class="n" d="M312.027,90.075c-.267,1,0,1.928.625,2.078s1.332-.53,1.6-1.526,0-1.932-.625-2.083S312.3,89.08,312.027,90.075Z" transform="translate(-163.064 -48.088)"/><path class="p" d="M309,83.355s1.508.658.673,1.69a4.127,4.127,0,0,0-.616,2.631,1.684,1.684,0,0,0,2.066,1.3c.382-.142-.434-4.011-.086-5.107S309,83.355,309,83.355Z" transform="translate(-161.535 -45.196)"/><path class="f" d="M303.231,117.89l-.511,1.279,2.768-.831Z" transform="translate(-158.253 -64.04)"/><path class="r" d="M308.744,104.152a1.172,1.172,0,0,1,1.16.425c1.021,1.21,1.561,1.585,1.561,1.681,0,.192-1.36,1.434-2.09,2.439l-2.339,4.568-3.245-2.846S308.291,108.181,308.744,104.152Z" transform="translate(-158.812 -56.565)"/><path class="r" d="M299.625,112.058l.511-1.279a8.5,8.5,0,0,1,.158-5.248V104.8a2.514,2.514,0,0,0-1.112.384s-1.847,1.937-1.947,3.654a23.757,23.757,0,0,1-.434,3.275l1.537-1.471Z" transform="translate(-155.158 -56.93)"/><path class="d" d="M203.75,125.83v10.848c0,2.5,2.668,4.531,5.975,4.545s5.99-2.005,5.994-4.5V125.876Z" transform="translate(-106.517 -68.354)"/><path class="s" d="M215.72,120.5c0,2.494-2.687,4.513-5.994,4.5s-5.98-2.046-5.975-4.568,2.687-4.513,5.994-4.5S215.724,118,215.72,120.5Z" transform="translate(-106.517 -62.976)"/><path class="j" d="M215.854,121.558c0,1.955-2.152,3.531-4.8,3.522s-4.773-1.6-4.773-3.554S208.418,118,211.062,118,215.854,119.608,215.854,121.558Z" transform="translate(-107.84 -64.1)"/><path class="f" d="M211.334,123.08a4.912,4.912,0,0,1,4.52,2.394,5.5,5.5,0,0,1-9.054-.027A4.9,4.9,0,0,1,211.334,123.08Z" transform="translate(-108.111 -66.86)"/><g class="t" transform="translate(83.135 34.624)"><path class="o" d="M211.182,110.454c-.057-.073-2.864-9.19,0-15.124s7.426-6.093,8.877-4.974,1.126,2.179-1.432,5.609c-2.329,3.111-5.107,7.272-4.658,13.776Z" transform="translate(-192.865 -83.414)"/><path class="u" d="M214.218,111.49h-.029a.193.193,0,0,1-.142-.023.178.178,0,0,1-.082-.114c-2.386-10.323,2.711-17.846,5.827-19.4a.2.2,0,0,1,.258.073.183.183,0,0,1-.081.247c-3.031,1.512-7.961,8.866-5.636,19A.181.181,0,0,1,214.218,111.49Z" transform="translate(-194.669 -84.564)"/><path class="o" d="M197.166,115.374c0-.091-1.942-9.405-7.355-13.388s-9.545-2.087-10.28-.457.067,2.43,4.009,4.321c3.575,1.713,8.056,4.157,10.824,10.113Z" transform="translate(-176.864 -88.739)"/><path class="u" d="M198.323,117.476h.024a.181.181,0,0,0,.117-.082.167.167,0,0,0,.017-.137c-2.93-10.2-11.087-14.58-14.6-14.567a.186.186,0,0,0-.133.051.17.17,0,0,0-.053.127.187.187,0,0,0,.191.183c3.417,0,11.359,4.294,14.237,14.3A.192.192,0,0,0,198.323,117.476Z" transform="translate(-179.165 -90.407)"/><path class="o" d="M213.56,115.422c-.024-.087,1-9.542,6-14s9.292-2.946,10.19-1.37.177,2.425-3.56,4.664c-3.393,2.033-7.636,4.874-9.774,11.049Z" transform="translate(-194.779 -88.12)"/><path class="u" d="M215.854,117.206h-.024a.183.183,0,0,1-.153-.21c1.909-10.415,9.593-15.53,13.091-15.827a.192.192,0,0,1,.139.041.176.176,0,0,1,.066.124.185.185,0,0,1-.167.2c-3.4.3-10.886,5.308-12.757,15.53A.185.185,0,0,1,215.854,117.206Z" transform="translate(-195.885 -89.581)"/></g><path class="v" d="M134.01,102.742s-5.016,3.472-19.21,2.394l4.481-25.456,11.736-.429S128.893,94.538,134.01,102.742Z" transform="translate(-60.019 -43.05)"/><path class="w" d="M137.212,198.56h3.47a24.181,24.181,0,0,0,.234,2.91c.043,1.128,1.575,2.681,2.138,3.175-.091,3.736-6.381-1.594-6.381-1.594a6.107,6.107,0,0,1,.377-2.814,7.8,7.8,0,0,0,.162-1.676Z" transform="translate(-71.421 -107.862)"/><path class="x" d="M134.952,203.494a.443.443,0,0,1,.692.128,4.075,4.075,0,0,0-.1,1.087,5.006,5.006,0,0,0,2.257,1.242.529.529,0,0,0,.682-.306,1.3,1.3,0,0,1,.563-1.32c.764-.566,1.122.151,1.122.151s.1,1.453,2.339,2.786,3.894,2.033,3.083,3.2c-.453.635-2.677,1.151-3.641.882a16.286,16.286,0,0,1-3.551-1.626c-1.7-.959-4-2.366-4.038-2.969C134.308,205.919,134.337,203.631,134.952,203.494Z" transform="translate(-70.235 -110.48)"/><path class="y" d="M128.711,148.825c1.871,1.64,5,1.041,6.567.279,0-3.17.4-16.3.22-18.687.41-12.484-1.465-27.589-1.47-25.8,0,0-10.314-5.828-10.719,2.741-.3,6.217,1.718,17,3.026,23.483a25.99,25.99,0,0,1,.272,6.2,47.415,47.415,0,0,0,2.1,11.78Z" transform="translate(-64.451 -55.779)"/><path class="z" d="M129.407,145.759c-.239-5.6.325-11.2.387-16.8.048-4.819-1.16-9.7-.477-14.494.506-3.535.477-7.19,3.159-9.592,0-.571-8.763-6.18-9.168,2.375-.3,6.217,1.718,17,3.026,23.483a25.989,25.989,0,0,1,.272,6.2,47.415,47.415,0,0,0,2.1,11.794,4.391,4.391,0,0,0,1.312.754A17.082,17.082,0,0,1,129.407,145.759Z" transform="translate(-64.451 -55.705)"/><path class="x" d="M109.168,211.013s-.363.228-.363,3.2-.9,4-.32,5.55c.53,1.416,1.007,2.014,2.582,2.014a2.915,2.915,0,0,0,2.907-2.887c.043-1.635-.644-2.32-.955-4.408s.162-3.156-.644-3.764S109.44,209.939,109.168,211.013Z" transform="translate(-56.616 -114.203)"/><path class="w" d="M111.15,212.661v2.4h.315c.052-.247.305-.425.916-.457,1.031,0,1.131.457,1.131.457h.286a21.371,21.371,0,0,0-.2-2.54C113.465,211.752,111.16,211.556,111.15,212.661Z" transform="translate(-58.111 -115.102)"/><path class="y" d="M107.316,154.484c1.694,1.96,4.973,1.909,6.729,1.329.477-1.695.735-12.753,1.713-17.444,1-4.052,3.842-29.2,3.842-29.2s-9.851-7.464-11.578,1.37c-1.26,6.436-.807,17.938-.439,24.867a26.916,26.916,0,0,1-.663,6.5,49.489,49.489,0,0,0,.4,12.58Z" transform="translate(-55.781 -57.702)"/><path class="z" d="M108.918,148.935c.129-4.463,0-8.948.816-13.365.85-4.568.955-16.809,8.314-27.238.033-.041,0-.1,0-.146-2.821-1.681-8.777-4.321-10.085,2.375-1.26,6.436-.807,17.938-.439,24.867a26.917,26.917,0,0,1-.663,6.5,49.489,49.489,0,0,0,.4,12.561,4.725,4.725,0,0,0,1.322,1.073C108.623,153.352,108.856,151.127,108.918,148.935Z" transform="translate(-55.751 -57.707)"/><path class="v" d="M164.863,95.785c-.425,1.462-.22,2.818.577,3.019s1.88-.822,2.3-2.284.253-2.741-.539-2.955S165.293,94.323,164.863,95.785Z" transform="translate(-86.076 -50.81)"/><path class="w" d="M163.15,96.584c-.477-.27-1.785-.612-1.79-1.115,0-.827.63-1.279.854-2a1.868,1.868,0,0,1,1.341.087c.081.032,1.15.6,1.27.617a7.591,7.591,0,0,1,2.339.457c.477.233.883.681,1.355.914.573.315,1.432.955,1.432,1.562a2.832,2.832,0,0,1-.692,1.475c-.539.845-1.193.882-3.083.219a17.626,17.626,0,0,1-2.549-1.955A2.72,2.72,0,0,0,163.15,96.584Z" transform="translate(-84.358 -50.728)"/><path class="w" d="M173.617,95.578a1.78,1.78,0,0,0-.6-.146,1.248,1.248,0,0,0-.515.11,8.98,8.98,0,0,0-1.26.726h0a.877.877,0,0,1-1.181-.24.8.8,0,0,1,.251-1.131,1,1,0,0,1,.157-.078,10.1,10.1,0,0,1,1.689-.557,2.651,2.651,0,0,1,1.088,0,2.875,2.875,0,0,1,.907.425.489.489,0,0,1,.129.694.534.534,0,0,1-.635.169Z" transform="translate(-88.836 -51.175)"/><path class="w" d="M176.367,98.035a1.261,1.261,0,0,0,1.06.338.631.631,0,0,0,.4-.26,1.329,1.329,0,0,0,.2-.594v-.046a.478.478,0,0,1,.955.027,2.238,2.238,0,0,1-.2,1.069,1.717,1.717,0,0,1-.931.84,2.278,2.278,0,0,1-1.227.11,2.813,2.813,0,0,1-1.093-.457h-.033a.659.659,0,0,1-.174-.943.728.728,0,0,1,.986-.167Z" transform="translate(-91.586 -52.709)"/><path class="w" d="M175.639,100.814l.692.338a2.48,2.48,0,0,0,.525.187h.076a.267.267,0,0,0,.1-.087,1.881,1.881,0,0,0,.22-.562v-.032a.482.482,0,0,1,.525-.271.464.464,0,0,1,.391.431,2.875,2.875,0,0,1-.21.914,1.344,1.344,0,0,1-.4.489,1.324,1.324,0,0,1-.673.242,3.045,3.045,0,0,1-1.026-.155c-.282-.082-.535-.174-.783-.251a.668.668,0,0,1-.4-.84.712.712,0,0,1,.85-.438Z" transform="translate(-91.301 -54.529)"/><path class="w" d="M175.271,101.624a1.8,1.8,0,0,0,.4.151v.037c0,.009.038,0,.057-.073a1.359,1.359,0,0,0,.062-.557,5.125,5.125,0,0,0-.1-.685h0a.459.459,0,0,1,.352-.467.485.485,0,0,1,.55.234,5.452,5.452,0,0,1,.243.8,2.463,2.463,0,0,1,.029.964,1.208,1.208,0,0,1-.988.982,2.366,2.366,0,0,1-1.145-.132h0a.671.671,0,0,1-.458-.85.713.713,0,0,1,.888-.439.643.643,0,0,1,.11.032Z" transform="translate(-91.091 -54.329)"/><path class="w" d="M170.645,101.54a3.935,3.935,0,0,0,.63.457,1.8,1.8,0,0,0,.62.228.543.543,0,0,0,.2,0,.163.163,0,0,0,.091-.055.807.807,0,0,0,.029-.557v-.027a.458.458,0,0,1,.363-.525.48.48,0,0,1,.544.311,1.7,1.7,0,0,1,.029,1.21,1.224,1.224,0,0,1-.539.594,1.681,1.681,0,0,1-.721.174,3.041,3.041,0,0,1-1.179-.247,5.611,5.611,0,0,1-.955-.521.657.657,0,0,1-.157-.921.726.726,0,0,1,.954-.193l.067.046Z" transform="translate(-88.598 -54.894)"/><path class="s" d="M153.6,90.863c-1.241-1.338-.081-5.139,1.761-5.239-.186,0-6.992-3.983-8.777-5.194a25.535,25.535,0,0,0-2.5-1.512c-3.46-.105-1.589,4.737-1.585,4.856C143.39,84.221,152.778,90.685,153.6,90.863Z" transform="translate(-74.234 -42.869)"/><path class="aa" d="M144.78,87.524a53.636,53.636,0,0,0,8.347,4.947,2.5,2.5,0,0,0,.506,1.854c-.816-.178-10.209-6.642-11.1-7.089a11.76,11.76,0,0,1-.477-1.937A25.5,25.5,0,0,0,144.78,87.524Z" transform="translate(-74.269 -46.337)"/><path class="s" d="M140.6,47s4.376,1.188,5.073,4.033a24.157,24.157,0,0,1,.611,7.249c-.138,1.864.057,6.934.057,6.934L143.6,63.741l-1.58-11.365Z" transform="translate(-73.506 -25.531)"/><path class="g" d="M161.683,98.026l-9.035-3.549-.339-.566,6.4-13.571,8.691,2.983.339.566Z" transform="translate(-79.627 -43.642)"/><path class="ab" d="M.241.147,9.945,0,9.7,15.378,0,15.525Z" transform="translate(78.582 35.901) rotate(22.32)"/><path class="d" d="M173.3,80.424a.677.677,0,0,0-.406-.836l-3.264-1.279a.726.726,0,0,0-.9.306l-.162-.064s-.893-.365-1.432.914l6.8,2.709A1.366,1.366,0,0,0,173.3,80.424Z" transform="translate(-87.379 -42.511)"/><path class="h" d="M.326.023,1.849,0a.293.293,0,0,1,.3.294l0,.225L0,.552,0,.327A.3.3,0,0,1,.1.111.323.323,0,0,1,.326.023Z" transform="translate(82.748 36.333) rotate(22.32)"/><path class="s" d="M108.93,64.671a42.686,42.686,0,0,1,2,4.015c1.785,2.8,6.142,6.961,10.022,6.267a13.189,13.189,0,0,0,4.653-1.8c.277-3.147.783-3.75.515-14.571-.224-9.04-4.3-10.73-5.679-13.822h-1.489L111.9,47.72s-1.522,1.37-2.973,2.558a4.618,4.618,0,0,0-1.67,4.189C107.8,58.258,108.93,64.671,108.93,64.671Z" transform="translate(-56.053 -24.315)"/><path class="w" d="M126.477,39.439v1.873c4.143,6.427-3.727,6.578-5.1.914,1.1-1.868.711-6.167.711-6.167A28.97,28.97,0,0,1,126.477,39.439Z" transform="translate(-63.459 -19.583)"/><path class="v" d="M131.117,57.08l.444,1.092-2.4-.708Z" transform="translate(-67.526 -31.007)"/><path class="ac" d="M120.817,43.66a1.411,1.411,0,0,0-1.055.5,2.46,2.46,0,0,0-.768,1.859c0,.164,1.336,1.448,1.971,2.284l2.028,3.892,2.816-2.425S121.209,47.1,120.817,43.66Z" transform="translate(-62.209 -23.717)"/><path class="ac" d="M133.045,51.8l-.444-1.092a9.8,9.8,0,0,0-.6-4.344V45.35a6.761,6.761,0,0,1,1.432.585,6.336,6.336,0,0,1,1.689,3.138,20.2,20.2,0,0,0,.382,2.8l-1.336-1.256Z" transform="translate(-69.01 -24.635)"/><path class="o" d="M112.67,46.87l8.538,14.617.477,19.212s-11.807,3.2-16.642-1.676c2.453-13.918-1.584-21.2,0-27.041a78.16,78.16,0,0,1,7.627-5.111Z" transform="translate(-54.72 -25.461)"/><path class="k" d="M110.518,91.528a28.581,28.581,0,0,1-1.16-9.62c.124-2.014.172-4.07.425-6.075.243-1.877.716-3.736.792-5.632.091-2.243-.625-3.38-2.8-4.166A14.46,14.46,0,0,0,104.6,65.3c0,5.358,2.386,12.333.372,23.752A9.892,9.892,0,0,0,110.518,91.528Z" transform="translate(-54.687 -35.472)"/><path class="o" d="M137.338,45.522A10.186,10.186,0,0,0,133,43.54L136.016,59.7l.477,19.212s3.937-2.119,5.183-4.929c0,0-1.47-8.587-1.962-13.247s-.954-9.51-1.432-11.657S137.338,45.522,137.338,45.522Z" transform="translate(-69.533 -23.652)"/><path class="k" d="M139.33,78.91c.191,1.594.329,3.2.439,4.792s.172,3.2.243,4.805.072,3.2.048,4.81-.1,3.2-.272,4.805l-.243-9.592c-.024-1.6-.1-3.2-.124-4.8S139.344,80.513,139.33,78.91Z" transform="translate(-72.842 -42.866)"/><path class="g" d="M116.559,108.731a2.413,2.413,0,0,1,1.742,2.38c.229,2.124,0,13.744,0,13.744s-.582.53-1.742,0-.64-1.827-2.625-1.425-2.3-.6-2.711-3.9S112.517,107.411,116.559,108.731Z" transform="translate(-58.118 -58.993)"/><path class="v" d="M120.6,112.774c.921,1.128.869,1.727,2.043,2.563,1.122-.142,1.957-2.467,1.432-3.723-.353-.868-1.341-3.2-2.792-2.658S119.678,111.641,120.6,112.774Z" transform="translate(-62.75 -59.143)"/><path class="w" d="M121.176,108.446c.821-.105,1.527-.411,2.348-.457a3.7,3.7,0,0,1,2.067.457,9.419,9.419,0,0,0,3.221.639c1.036,0-.067,1.069-.606,1.147s-1.909-.713-2.157.155,1.623,1.713,2.243,1.827,1.885-.228,1.909.457-.577.649-1.5.79-2.992.333-4.133-.329a33.485,33.485,0,0,1-3.713-2.252C119.85,110.085,120.885,109.268,121.176,108.446Z" transform="translate(-62.959 -58.657)"/><path class="s" d="M99.624,57.057c2.992.411,4.419,4.335,3.818,6.852-1.479,3.421-5.555,5.966-5.374,9.748a68.828,68.828,0,0,0,8.037,7.08c-1.537,2.549-.477,4.782,1.432,6.486-6.009-3.261-11.364-4.047-15.559-10.3a5.545,5.545,0,0,1-.821-2.942C91.053,70.724,95.143,56.44,99.624,57.057Z" transform="translate(-47.66 -30.984)"/><path class="aa" d="M106.347,85.96a40.742,40.742,0,0,0-4.2-2.914c-2.553-1.521-4.677-3.508-7.259-5.143-2.386-1.526-2.553-3.883-1.737-6.957a52.11,52.11,0,0,1,3.995-9.136c.921-1.53,2.181-2.969,2.725-4.664a2.6,2.6,0,0,0-.272-.059c-4.481-.617-8.591,13.671-8.452,16.9a5.545,5.545,0,0,0,.821,2.942c4.2,6.258,9.545,7.044,15.559,10.3A8.016,8.016,0,0,1,106.347,85.96Z" transform="translate(-47.653 -31)"/><path class="ab" d="M108.313,102.607s-1.871.265-1.828,4.3v14.7s-.955,1.3-3.575-1.041-2.63,1.041-4.806-1.95-2.172.388-2.172.388-1.227,1.781,0-6.715S96,98.533,98.8,97.669s3.775.164,3.775.164Z" transform="translate(-49.872 -52.869)"/><path class="x" d="M138.735,18.884a6.363,6.363,0,0,1-.9,6.308s-1.308-5.184-1.308-5.938S138.735,18.884,138.735,18.884Z" transform="translate(-71.378 -10.205)"/><path class="ad" d="M127.8,29.557a1.068,1.068,0,0,0,.73-.384,9.036,9.036,0,0,0,1.174-1.987,6.622,6.622,0,0,0,.43-2.832c.807-4.568-.692-6.313-1.685-7.044-2.186-1.608-5.522-.722-6.472.055a6.743,6.743,0,0,0-1.031,1.051.593.593,0,0,1,0,.091v6.852a11.312,11.312,0,0,0,1.255,1.649c.262.283.678.772,1.2,1.279a4.8,4.8,0,0,0,3.818,1.329Z" transform="translate(-63.234 -8.915)"/><path class="x" d="M129.071,14.79c-3.77.694-5.565.457-8.047,1.288-.955.329-1.909,1.9-1.332,2.4-1.5.69-1.274,1.713-.749,3.8.673,2.69,1,3.5,1.88,3.376a5.026,5.026,0,0,1,.787-1.982,3.782,3.782,0,0,1,.988-2.389c.477-.457,5.866-.411,6.515-1.827C130.918,17.562,131.49,14.342,129.071,14.79Z" transform="translate(-61.976 -8.011)"/><path class="ad" d="M124.073,32.689c.253.914,0,1.781-.587,1.918s-1.25-.489-1.5-1.411,0-1.781.587-1.918S123.82,31.766,124.073,32.689Z" transform="translate(-63.723 -16.98)"/><path class="x" d="M125.339,27.36l-.1,3.28a.758.758,0,0,1-.773.256c-.477-.119-.73-2.837-.73-2.837Z" transform="translate(-64.693 -14.863)"/><ellipse class="f" cx="17.907" cy="8.185" rx="17.907" ry="8.185" transform="translate(89.139 127.108)"/><ellipse class="ae" cx="17.907" cy="8.185" rx="17.907" ry="8.185" transform="translate(89.139 125.326)"/><path class="g" d="M222.177,256.952h0a1.907,1.907,0,0,1-1.947-1.864V230.23h3.9v24.858A1.912,1.912,0,0,1,222.177,256.952Z" transform="translate(-115.132 -125.066)"/><path class="af" d="M170.35,183.507l-49.52-27.041,49.52-27.685,49.711,27.288Z" transform="translate(-63.171 -69.956)"/><path class="d" d="M170.35,191.391l-49.52-27.046v-3.59l49.52-24.1,49.711,23.7v3.595Z" transform="translate(-63.171 -74.237)"/><path class="h" d="M170.35,183.507l-49.52-27.041,49.52-27.685,49.711,27.288Z" transform="translate(-63.171 -69.956)"/><path class="j" d="M201.019,181.365c-1.274,4.07-7.2,6.194-13.693,6.194s-12.409-2.124-13.688-6.194c-1.565-5,4.162-11.365,13.688-11.365S202.58,176.363,201.019,181.365Z" transform="translate(-90.643 -92.348)"/><path class="d" d="M200.877,175.354c-.3,4.746-6.066,7.354-13.363,7.354s-13.063-2.608-13.4-7.354c-.353-4.979,5.25-11.534,13.32-11.534S201.192,170.375,200.877,175.354Z" transform="translate(-91.016 -88.991)"/><path class="j" d="M201.944,163.21a1.484,1.484,0,0,1-1.632,1.256,1.5,1.5,0,0,1-1.642-1.256,1.69,1.69,0,0,1,3.274,0Z" transform="translate(-103.861 -87.969)"/><path class="d" d="M228.35,147.41l1.04,5.833a2.9,2.9,0,0,0,5.293.018l1.064-5.824Z" transform="translate(-119.376 -80.076)"/><path class="ae" d="M235.752,144.586c0,1.329-1.661,2.4-3.7,2.394s-3.7-1.087-3.7-2.416,1.661-2.4,3.7-2.394S235.752,143.262,235.752,144.586Z" transform="translate(-119.376 -77.23)"/><path class="j" d="M235.8,144.809c0,1.192-1.532,2.156-3.412,2.151S229,146,229,144.781s1.532-2.156,3.412-2.151S235.8,143.612,235.8,144.809Z" transform="translate(-119.716 -77.48)"/><path class="g" d="M232.581,145.73a3.649,3.649,0,0,1,3.212,1.466,4.279,4.279,0,0,1-6.433-.018A3.661,3.661,0,0,1,232.581,145.73Z" transform="translate(-119.904 -79.164)"/><ellipse class="j" cx="7.846" cy="4.81" rx="7.846" ry="4.81" transform="translate(115.722 75.866)"/><ellipse class="d" cx="10.891" cy="5.682" rx="10.891" ry="5.682" transform="translate(112.677 73.226)"/><ellipse class="j" cx="8.562" cy="4.129" rx="8.562" ry="4.129" transform="translate(115.006 74.441)"/><path class="ag" d="M266.84,168.731l1.055-.763s.425-3.5-2.673-4.5a3.015,3.015,0,0,0-3.622,1.37Z" transform="translate(-136.757 -88.708)"/><path class="n" d="M261.6,165.45a2.838,2.838,0,0,1,3.341-.722c1.909.959,1.885,4.618,1.885,4.618a26.425,26.425,0,0,1-3.226-1.59A3.779,3.779,0,0,1,261.6,165.45Z" transform="translate(-136.757 -89.323)"/><path class="ag" d="M266.231,169.5a1.019,1.019,0,0,0,.091-.649,1.649,1.649,0,0,0-.282-.5.9.9,0,0,1-.052-.562.555.555,0,0,0-.086-.4c-.1-.128-.277-.1-.425-.137a.5.5,0,0,1-.353-.247c-.124-.242-.062-.58-.363-.722a.87.87,0,0,0-.625.027.851.851,0,0,1-.453,0c-.153-.059-.215-.224-.377-.274s-.391.123-.554.228a1.215,1.215,0,0,1-.382.183c-.129.037-.4.041-.477.16s.148.4.215.5a4.692,4.692,0,0,0,1.651,1.494c.9.521,1.709.914,2.291,1.183A1.36,1.36,0,0,0,266.231,169.5Z" transform="translate(-136.902 -90.191)"/><ellipse class="ah" cx="0.134" cy="0.311" rx="0.134" ry="0.311" transform="translate(126.284 76.615)"/><path class="ah" d="M268.772,171.579c-.172.037-.329,0-.344-.059s.115-.151.291-.187.329,0,.344.059S268.949,171.543,268.772,171.579Z" transform="translate(-140.327 -93.064)"/><path class="ah" d="M268.454,169.529c-.1.146-.22.238-.282.2s-.038-.187.057-.333.22-.233.282-.2S268.549,169.383,268.454,169.529Z" transform="translate(-140.175 -91.909)"/><path class="ah" d="M266.966,167.961c-.048.164-.143.283-.21.265s-.091-.169-.043-.333.138-.283.21-.265S267.013,167.8,266.966,167.961Z" transform="translate(-139.417 -91.058)"/><path class="f" d="M251.323,162.24a1.548,1.548,0,1,1-1.546-1.48A1.514,1.514,0,0,1,251.323,162.24Z" transform="translate(-129.768 -87.328)"/><path class="g" d="M251.891,162.73a1.27,1.27,0,0,1-1.346,1.145,1.233,1.233,0,1,1,.063-2.465A1.3,1.3,0,0,1,251.891,162.73Z" transform="translate(-130.336 -87.681)"/><path class="f" d="M251.126,162.847c-.024-.027-.076,0-.052.037a1.462,1.462,0,0,1,.162.256,2.513,2.513,0,0,0,.129.279h.067A.977.977,0,0,0,251.126,162.847Z" transform="translate(-131.252 -88.456)"/><path class="f" d="M252.948,162.741a1.036,1.036,0,0,0-.358.608c0,.027.038.037.052,0a2.435,2.435,0,0,1,.344-.585C253.005,162.755,252.972,162.718,252.948,162.741Z" transform="translate(-132.048 -88.401)"/><path class="f" d="M250.8,165.31a3.314,3.314,0,0,0-.592.091v.037a3.617,3.617,0,0,0,.592-.082S250.826,165.31,250.8,165.31Z" transform="translate(-130.803 -89.8)"/><path class="f" d="M253.264,165.3l-.162-.1c-.043,0-.086-.059-.138-.05s-.029,0-.024.037.072.069.119.091l.162.091a.044.044,0,0,0,.05-.018.04.04,0,0,0-.007-.05Z" transform="translate(-132.225 -89.712)"/><path class="ai" d="M251.624,163.64a.548.548,0,0,0-.426.205.5.5,0,0,0-.09.448v.032a.541.541,0,0,0,.506.37.555.555,0,0,0,.506-.37v-.032a.5.5,0,0,0-.086-.439A.551.551,0,0,0,251.624,163.64Z" transform="translate(-131.263 -88.893)"/><path class="f" d="M252.02,164.42a.179.179,0,0,0-.139.068.163.163,0,0,0-.028.147h0a.185.185,0,0,0,.167.119.181.181,0,0,0,.167-.119h0a.168.168,0,0,0-.031-.145A.184.184,0,0,0,252.02,164.42Z" transform="translate(-131.659 -89.317)"/><path class="f" d="M252.294,165.491a1.339,1.339,0,0,0,.038.457h.043v-.429C252.39,165.431,252.294,165.431,252.294,165.491Z" transform="translate(-131.89 -89.876)"/><ellipse class="f" cx="1.623" cy="1.553" rx="1.623" ry="1.553" transform="translate(116.782 74.82)"/><ellipse class="g" cx="1.351" cy="1.393" rx="1.351" ry="1.393" transform="translate(117.326 75.149)"/><path class="f" d="M247.746,165.987a.033.033,0,0,0-.052.041,1.664,1.664,0,0,1,.172.274,1.992,1.992,0,0,0,.134.288.039.039,0,0,0,.067,0,1.026,1.026,0,0,0-.32-.6Z" transform="translate(-129.485 -90.162)"/><path class="f" d="M249.657,165.938a1.1,1.1,0,0,0-.377.635c0,.032.043.041.057,0a2.66,2.66,0,0,1,.358-.612.027.027,0,0,0-.013-.02A.03.03,0,0,0,249.657,165.938Z" transform="translate(-130.317 -90.14)"/><path class="f" d="M247.4,168.62a3.641,3.641,0,0,0-.62.1v.037a3.121,3.121,0,0,0,.62-.087A.023.023,0,1,0,247.4,168.62Z" transform="translate(-129.01 -91.598)"/><path class="f" d="M250,168.61l-.172-.1a.234.234,0,0,0-.148-.059.041.041,0,0,0-.024.041c0,.05.076.073.124.1l.172.1a.046.046,0,0,0,.062-.014.042.042,0,0,0-.014-.059Z" transform="translate(-130.516 -91.506)"/><path class="ai" d="M248.273,166.87a.577.577,0,0,0-.448.215.525.525,0,0,0-.1.471v.032a.565.565,0,0,0,.535.388.574.574,0,0,0,.53-.388v-.032a.529.529,0,0,0-.091-.46A.58.58,0,0,0,248.273,166.87Z" transform="translate(-129.496 -90.647)"/><path class="f" d="M248.685,167.69a.189.189,0,0,0-.149.069.172.172,0,0,0-.033.155h0a.19.19,0,0,0,.177.128.194.194,0,0,0,.172-.128h0a.172.172,0,0,0-.028-.15A.188.188,0,0,0,248.685,167.69Z" transform="translate(-129.908 -91.093)"/><path class="f" d="M249,168.807a1.341,1.341,0,0,0,.043.457h.038v-.457C249.086,168.748,249,168.748,249,168.807Z" transform="translate(-130.166 -91.675)"/><path class="aj" d="M244.145,170.419s-1.365-.868-1.365.123,1.5.877,1.5.877-1.293.1-.921.667a.971.971,0,0,0,.716.333,2.788,2.788,0,0,0,1.962-.539c.31-.228.587-.48.53-.612-.119-.279.21-2.48-.52-1.827s-.205,1.206-.205,1.206.119-2.1-.606-1.745a.966.966,0,0,0-.434,1.178s-.535-1.306-.916-.978S244.145,170.419,244.145,170.419Z" transform="translate(-126.92 -91.73)"/><path class="r" d="M259.349,167.524a.746.746,0,0,0-.243-.183l-.172-.082c-.024-.1-.038-.192-.062-.288a2.7,2.7,0,0,0,.267.2c.143.087.234,0,.215-.114a.653.653,0,0,0-.215-.347c.172.064.191-.142-.033-.352l-.477-.42a.645.645,0,0,0,.148-.123c.091-.091-.153-.265-.267-.187h0v-.041a1.116,1.116,0,0,0,.224-.228c.076-.114-.115-.228-.253-.137h0a.3.3,0,0,0-.1-.128,1.6,1.6,0,0,0,.243-.169.873.873,0,0,0,.272-.315.079.079,0,0,0,0-.073.177.177,0,0,0-.2-.05,1.307,1.307,0,0,0-.358.206.217.217,0,0,0-.129-.073l-.2-.046-.076-.192-.033-.05h.033a.091.091,0,0,0,.075-.047.083.083,0,0,0,0-.086.262.262,0,0,0-.215-.1.758.758,0,0,0-.143,0,.058.058,0,0,0,0-.027.108.108,0,0,0-.043-.082l.191-.078c.191-.082.072-.311-.158-.26l-.239.05h0c.067-.037-.086-.183-.172-.16a.641.641,0,0,1-.138,0v-.027a.215.215,0,0,0,0-.059.133.133,0,0,0-.072-.1v-.032c0-.023-.029-.046-.062-.064a.092.092,0,0,0,0-.069c.186-.027.239-.233.062-.3a1.989,1.989,0,0,0-.506-.082h0c.2-.023.267-.274,0-.324-.143-.027-.286-.059-.425-.1-.024-.082-.124-.146-.191-.215l-.057-.059c.057-.087-.048-.174-.162-.178a.307.307,0,0,0-.344,0h0c.076-.137-.191-.238-.339-.16-.024-.11-.272-.16-.367-.046l-.038.041a1.153,1.153,0,0,0-.119-.091,1.685,1.685,0,0,0-.434-.2.321.321,0,0,0-.31.046.133.133,0,0,0-.038.151.218.218,0,0,0-.277.114.785.785,0,0,0-.363-.155.271.271,0,0,0-.31.146l-.157-.055c-.224-.087-.477.132-.286.26l.119.069-.076.027-.2.064v-.023a.291.291,0,0,0-.291-.064c-.1.032-.167.11-.134.192a.715.715,0,0,0,.1.2.671.671,0,0,0-.167.123.106.106,0,0,0,0,.142,1.977,1.977,0,0,1-.215-.041c-.158-.027-.291.069-.282.164a.1.1,0,0,0-.024.123.519.519,0,0,0-.115.027.158.158,0,0,0,0,.311l.072.023h0a.418.418,0,0,0,.086.137h0v.073a3.229,3.229,0,0,0-.434-.219.3.3,0,0,0-.325.059c-.072.087,0,.178.086.228s.155.094.229.146a.176.176,0,0,0-.1.073.374.374,0,0,1-.033.059.288.288,0,0,0-.205,0c-.124.041-.177.123-.153.192a.411.411,0,0,0,.148.206.322.322,0,0,0-.134.082H250.2l-.048-.032-.086-.064a.322.322,0,0,0-.334,0,.148.148,0,0,0-.092.1.141.141,0,0,0,.03.129.791.791,0,0,0,.191.183,1.1,1.1,0,0,0,.11.073.873.873,0,0,0-.143.11l-.119-.082c-.138-.1-.425.05-.339.187a1.193,1.193,0,0,0,.177.247l-.057.087a2.791,2.791,0,0,1-.282-.064c-.158-.046-.3.11-.138.16l.31.105v.027h0a1.885,1.885,0,0,0-.277,0c-.22.032-.172.279.053.274h.119a.08.08,0,0,0,0,.114h0a.124.124,0,0,1-.1,0c-.119-.1-.52.32-.43.457a.258.258,0,0,0,.224.091.337.337,0,0,0-.1.151.162.162,0,0,0,0,.05h0a.232.232,0,0,0-.1-.027c-.081,0-.148.046-.148.1a.665.665,0,0,0,.119.361,1.2,1.2,0,0,0,.277.311.187.187,0,0,0,.115.032.133.133,0,0,0,.134-.091,1.058,1.058,0,0,0,.215.187l-.215.128c-.1.059-.138.187-.091.247a.187.187,0,0,0,.248,0,.114.114,0,0,0,.062.1.686.686,0,0,0,.391.105.922.922,0,0,0,.224-.041,1.623,1.623,0,0,0,.21,0h0a2.515,2.515,0,0,0-.272.274c-.21.242.1.457.32.219.1-.11.21-.21.31-.311s.072-.068.1-.1h.024a1.631,1.631,0,0,0-.129.128.639.639,0,0,0-.181.3h0c-.205,0-.258.174-.1.256a1.247,1.247,0,0,0,.644.069.228.228,0,0,0,.194.342.259.259,0,0,0,.211-.082l.067-.064a.221.221,0,0,0,.205.119,1.043,1.043,0,0,0,.239,0h0c-.3.283-.033.8.339.562a7.716,7.716,0,0,0,.63-.457h0a.3.3,0,0,0,.348.11c.22-.091.329-.3.525-.457a.644.644,0,0,1,.11-.059.5.5,0,0,0-.062.078c-.248.283.124.685.4.42a3.979,3.979,0,0,0,.3-.32l.358.123a.333.333,0,0,0,.248,0h.024c.076-.041.119-.1.1-.164h0a.134.134,0,0,0-.057-.069.4.4,0,0,0,.062-.146,1.653,1.653,0,0,0,.115.356.368.368,0,0,0,.387.242.282.282,0,0,0,.229-.2c.067.274.52.329.525.032v-.375a1.839,1.839,0,0,0,.315.032.291.291,0,0,0,.172-.046l.053.027c.253.132.43,0,.444-.224a.731.731,0,0,0,.253-.064.571.571,0,0,0,.41.164c.177-.027.229-.242.086-.5a1.136,1.136,0,0,0-.167-.219h.038l.115.069a.974.974,0,0,0,.477.215.166.166,0,0,0,.123-.049.151.151,0,0,0,.044-.121h0l.105.091a.292.292,0,0,0,.262.105.385.385,0,0,1-.086-.183,1.633,1.633,0,0,0-.067-.338.4.4,0,0,0,.305-.032.182.182,0,0,0,.055-.164A.188.188,0,0,0,259.349,167.524Zm-8.371-3.43h0a1.17,1.17,0,0,1-.033-.215l.033.027a.171.171,0,0,0,0,.155Zm5.613,4.467a.578.578,0,0,0,0-.091c.029.027.053.059.081.091Zm.8-.247a1.024,1.024,0,0,0-.091-.155h0l.115.137Z" transform="translate(-129.972 -87.711)"/><path class="r" d="M252.513,165.741a1.913,1.913,0,0,1,.229.146.061.061,0,0,1,0-.032.548.548,0,0,0-.119-.425.268.268,0,0,0-.186.082C252.355,165.6,252.408,165.69,252.513,165.741Z" transform="translate(-131.947 -89.865)"/><path class="ak" d="M258.2,170.747a.974.974,0,0,0,.477.215.166.166,0,0,0,.123-.048.151.151,0,0,0,.044-.121h0c.062-.3-.119-.393-.544-.279a2.746,2.746,0,0,1-.277,0,1.063,1.063,0,0,1-.205-.064c-.367-.114-.2-.105-.5,0a1.214,1.214,0,0,1-.219.069c-.444.037-1.2-.635-1.518-.279a.173.173,0,0,1-.21,0,2.375,2.375,0,0,0-.883-.315h0c0,.055-.062.091-.138.1-.367.032-.735.037-1.112.037-.1,0-.148-.059-.129-.119.1-.375.477-1.165-.372-1.242-.067,0-.138-.041-.134-.1.033-.379-.282-.379-.735-.457-.072,0-.119-.069-.1-.114.148-.338.134-.457-.277-.731-.138-.087-.4-.151-.477-.279s.515-.589-.115-.626a.14.14,0,0,1-.124-.064.176.176,0,0,0-.1.073.376.376,0,0,1-.033.059.288.288,0,0,0-.205,0c-.124.041-.177.123-.153.192a.411.411,0,0,0,.148.206.322.322,0,0,0-.134.082h-.048l-.048-.032-.086-.064a.322.322,0,0,0-.334,0,.148.148,0,0,0-.092.1.141.141,0,0,0,.03.129.79.79,0,0,0,.191.183,1.089,1.089,0,0,0,.11.073.874.874,0,0,0-.143.11l-.119-.082c-.138-.1-.425.05-.339.187a1.193,1.193,0,0,0,.177.247l-.057.087a2.8,2.8,0,0,1-.282-.064c-.157-.046-.3.11-.138.16l.31.105v.027h0a1.887,1.887,0,0,0-.277,0c-.22.032-.172.279.053.274h.076a.08.08,0,0,0,0,.114h0a.124.124,0,0,1-.1,0c-.119-.1-.52.32-.43.457a.258.258,0,0,0,.224.091.338.338,0,0,0-.1.151.162.162,0,0,0,0,.05h0a.232.232,0,0,0-.1-.027c-.081,0-.148.046-.148.1a.665.665,0,0,0,.119.361,1.2,1.2,0,0,0,.277.311.187.187,0,0,0,.115.032.133.133,0,0,0,.134-.091,1.059,1.059,0,0,0,.215.187l-.215.128c-.1.059-.138.187-.091.247a.187.187,0,0,0,.248,0,.114.114,0,0,0,.062.1.685.685,0,0,0,.391.105.923.923,0,0,0,.224-.041,1.64,1.64,0,0,0,.21,0h0a2.508,2.508,0,0,0-.272.274c-.21.242.1.457.32.219.1-.11.21-.21.31-.311s.072-.069.1-.1h.024a1.636,1.636,0,0,0-.129.128.639.639,0,0,0-.181.3h0c-.205,0-.258.174-.1.256a1.248,1.248,0,0,0,.644.068.228.228,0,0,0,.194.342.259.259,0,0,0,.211-.082l.067-.064a.221.221,0,0,0,.205.119,1.038,1.038,0,0,0,.239,0h0c-.3.283-.033.8.339.562a7.715,7.715,0,0,0,.63-.457h0a.3.3,0,0,0,.348.11c.22-.091.329-.3.525-.457a.644.644,0,0,1,.11-.059.5.5,0,0,0-.062.078c-.248.283.124.685.4.42a3.983,3.983,0,0,0,.3-.32l.358.123a.333.333,0,0,0,.248,0h.024c.076-.041.119-.1.1-.164h0a.134.134,0,0,0-.057-.069.4.4,0,0,0,.062-.146,1.651,1.651,0,0,0,.115.356.368.368,0,0,0,.387.242.282.282,0,0,0,.229-.2c.067.274.52.329.525.032v-.375a1.844,1.844,0,0,0,.315.032.291.291,0,0,0,.172-.046l.053.027c.253.132.43,0,.444-.224a.732.732,0,0,0,.253-.064.571.571,0,0,0,.41.164c.177-.027.229-.242.086-.5a1.136,1.136,0,0,0-.167-.219h.038Zm-7.221-4h0a1.171,1.171,0,0,1-.033-.215l.033.027a.171.171,0,0,0,0,.155Zm5.613,4.458a.578.578,0,0,0,0-.091c.029.027.053.059.081.091Zm.8-.247a1.024,1.024,0,0,0-.091-.155h0l.115.137Z" transform="translate(-129.972 -90.354)"/><path class="al" d="M252.728,173.617a.865.865,0,0,1,.277.315.887.887,0,0,1,.124.356c0,.055-.057.1-.138.105a.207.207,0,0,1-.11-.032,1.223,1.223,0,0,1-.282-.311.665.665,0,0,1-.119-.361c0-.055.067-.1.148-.1A.183.183,0,0,1,252.728,173.617Z" transform="translate(-131.99 -94.298)"/><path class="al" d="M248.788,172.737a.865.865,0,0,1,.277.315.793.793,0,0,1,.119.356c0,.055-.052.1-.134.105a.187.187,0,0,1-.115-.032,1.2,1.2,0,0,1-.277-.311.665.665,0,0,1-.119-.361c0-.055.067-.1.148-.1A.232.232,0,0,1,248.788,172.737Z" transform="translate(-129.93 -93.82)"/><path class="al" d="M267,169.046a.959.959,0,0,1,.282.311.886.886,0,0,1,.119.361c0,.055-.057.1-.134.105a.212.212,0,0,1-.115-.032,1.072,1.072,0,0,1-.286-.333.644.644,0,0,1-.124-.356c0-.055.067-.1.148-.1A.171.171,0,0,1,267,169.046Z" transform="translate(-139.444 -91.805)"/><path class="al" d="M268.918,172.02a.827.827,0,0,1-.272.315,1.566,1.566,0,0,1-.4.238.177.177,0,0,1-.2-.037.066.066,0,0,1,0-.082,1.074,1.074,0,0,1,.267-.315,1.21,1.21,0,0,1,.4-.242.177.177,0,0,1,.2.05A.071.071,0,0,1,268.918,172.02Z" transform="translate(-140.124 -93.372)"/><path class="al" d="M254.3,165.687a1.016,1.016,0,0,1,.4.667c0,.059-.057.105-.138.105a.143.143,0,0,1-.11-.032,1.153,1.153,0,0,1-.282-.311.638.638,0,0,1-.119-.356c0-.059.067-.1.148-.1a.182.182,0,0,1,.1.027Z" transform="translate(-132.811 -89.99)"/><path class="al" d="M250.1,170.793a1.552,1.552,0,0,1,.477.164,1.527,1.527,0,0,1,.372.26.088.088,0,0,1,.018.08.093.093,0,0,1-.056.062.184.184,0,0,1-.119,0,2.033,2.033,0,0,1-.477-.164,1.167,1.167,0,0,1-.368-.26.084.084,0,0,1-.018-.084.089.089,0,0,1,.066-.058A.224.224,0,0,1,250.1,170.793Z" transform="translate(-130.653 -92.775)"/><path class="al" d="M259.411,172.721a.624.624,0,0,1,.067.365.8.8,0,0,1-.105.361.171.171,0,0,1-.186.055.142.142,0,0,1-.081-.064.826.826,0,0,1-.067-.365.641.641,0,0,1,.105-.356.167.167,0,0,1,.191-.05A.124.124,0,0,1,259.411,172.721Z" transform="translate(-135.418 -93.79)"/><path class="al" d="M253.253,170.786a1.117,1.117,0,0,1,.334.283,1.03,1.03,0,0,1,.186.347.116.116,0,0,1-.115.114.183.183,0,0,1-.115-.023,1.358,1.358,0,0,1-.339-.283.741.741,0,0,1-.205-.361c0-.055.048-.105.129-.114A.2.2,0,0,1,253.253,170.786Z" transform="translate(-132.262 -92.755)"/><path class="al" d="M260.821,174.288a1.137,1.137,0,0,1-.348.274,2.057,2.057,0,0,1-.477.183.161.161,0,0,1-.181-.064.066.066,0,0,1,0-.082,1.478,1.478,0,0,1,.348-.279,1.293,1.293,0,0,1,.453-.178.156.156,0,0,1,.181.069A.089.089,0,0,1,260.821,174.288Z" transform="translate(-135.817 -94.593)"/><path class="al" d="M254.829,169.037a1.019,1.019,0,0,1,.339.279.993.993,0,0,1,.2.343.123.123,0,0,1-.115.119.209.209,0,0,1-.119,0,1.405,1.405,0,0,1-.344-.32.758.758,0,0,1-.2-.343c0-.055.048-.105.129-.114A.2.2,0,0,1,254.829,169.037Z" transform="translate(-133.093 -91.805)"/><path class="al" d="M251.9,168.227a1.021,1.021,0,0,1,.339.279.993.993,0,0,1,.2.343.12.12,0,0,1-.115.119.183.183,0,0,1-.115-.023,1.479,1.479,0,0,1-.344-.279.781.781,0,0,1-.2-.343c0-.055.048-.105.129-.114A.2.2,0,0,1,251.9,168.227Z" transform="translate(-131.567 -91.374)"/><path class="al" d="M264.231,173.2a.633.633,0,0,1,.067.365.786.786,0,0,1-.105.361.166.166,0,0,1-.186.055.124.124,0,0,1-.081-.059.773.773,0,0,1-.067-.365.68.68,0,0,1,.1-.361.187.187,0,0,1,.2-.05A.143.143,0,0,1,264.231,173.2Z" transform="translate(-137.937 -94.053)"/><path class="al" d="M267.35,174.14a.615.615,0,0,1,.067.361.849.849,0,0,1-.1.361.171.171,0,0,1-.186.059.128.128,0,0,1-.081-.064.765.765,0,0,1-.067-.365.649.649,0,0,1,.1-.361.177.177,0,0,1,.2-.046.124.124,0,0,1,.076.055Z" transform="translate(-139.568 -94.56)"/><path class="al" d="M263.608,170.161a.873.873,0,0,1-.272.315,1.566,1.566,0,0,1-.4.238.167.167,0,0,1-.2-.037.066.066,0,0,1,0-.082,1.006,1.006,0,0,1,.267-.315,1.163,1.163,0,0,1,.4-.242.187.187,0,0,1,.2.046A.092.092,0,0,1,263.608,170.161Z" transform="translate(-137.348 -92.362)"/><path class="al" d="M260.391,170.844a.871.871,0,0,1-.267.32,1.747,1.747,0,0,1-.4.238.187.187,0,0,1-.2-.037.083.083,0,0,1,0-.087,1.2,1.2,0,0,1,.267-.315,1.285,1.285,0,0,1,.4-.238.177.177,0,0,1,.2.046.07.07,0,0,1,0,.073Z" transform="translate(-135.667 -92.735)"/><path class="al" d="M259.461,176.091a.858.858,0,0,1-.267.315,1.606,1.606,0,0,1-.4.242.187.187,0,0,1-.2-.037.084.084,0,0,1,0-.087,1.2,1.2,0,0,1,.267-.315,1.133,1.133,0,0,1,.4-.224.177.177,0,0,1,.2.046A.07.07,0,0,1,259.461,176.091Z" transform="translate(-135.181 -95.593)"/><path class="al" d="M258.214,168.424a1.012,1.012,0,0,1,.348.279.907.907,0,0,1,.205.338.115.115,0,0,1-.11.119.184.184,0,0,1-.115,0,1.42,1.42,0,0,1-.353-.279.751.751,0,0,1-.2-.338.118.118,0,0,1,.119-.114A.2.2,0,0,1,258.214,168.424Z" transform="translate(-134.87 -91.489)"/><path class="al" d="M260.681,166.656a.766.766,0,0,1,.186.343.805.805,0,0,1,0,.37c0,.055-.086.091-.162.082a.156.156,0,0,1-.1-.046.953.953,0,0,1-.186-.347.6.6,0,0,1,0-.365.15.15,0,0,1,.172-.078A.141.141,0,0,1,260.681,166.656Z" transform="translate(-136.125 -90.506)"/><path class="al" d="M264.538,165.9a.925.925,0,0,1-.272.315,1.569,1.569,0,0,1-.4.238.177.177,0,0,1-.2-.037.066.066,0,0,1,0-.082,1.007,1.007,0,0,1,.267-.315,1.163,1.163,0,0,1,.4-.242.187.187,0,0,1,.2.046.092.092,0,0,1,0,.078Z" transform="translate(-137.834 -90.048)"/><path class="al" d="M269.109,168.24a.874.874,0,0,1-.272.315,1.576,1.576,0,0,1-.4.242.187.187,0,0,1-.2-.037.075.075,0,0,1,0-.087,1.368,1.368,0,0,1,.668-.557.177.177,0,0,1,.2.05A.079.079,0,0,1,269.109,168.24Z" transform="translate(-140.224 -91.319)"/><path class="al" d="M265.982,166.187a.655.655,0,0,1-.072.365,1.055,1.055,0,0,1-.234.329.193.193,0,0,1-.2,0,.106.106,0,0,1-.057-.073.8.8,0,0,1,.072-.365.758.758,0,0,1,.234-.329.188.188,0,0,1,.205,0A.1.1,0,0,1,265.982,166.187Z" transform="translate(-138.754 -90.22)"/><path class="al" d="M256.868,166.395a1.181,1.181,0,0,1-.367.265,1.993,1.993,0,0,1-.477.164.151.151,0,0,1-.177-.069.075.075,0,0,1,0-.082,1.761,1.761,0,0,1,.367-.265,1.44,1.44,0,0,1,.477-.164.155.155,0,0,1,.177.078A.071.071,0,0,1,256.868,166.395Z" transform="translate(-133.744 -90.305)"/><path class="al" d="M258.808,166.521a1.1,1.1,0,0,1-.363.26,2.074,2.074,0,0,1-.477.169.175.175,0,0,1-.181-.068.084.084,0,0,1,0-.087,1.762,1.762,0,0,1,.835-.429.165.165,0,0,1,.177.078A.079.079,0,0,1,258.808,166.521Z" transform="translate(-134.758 -90.372)"/><path class="al" d="M255.842,174.492a.931.931,0,0,1,.344.681c0,.059-.062.1-.143.1a.177.177,0,0,1-.11-.037,1.19,1.19,0,0,1-.253-.32.653.653,0,0,1-.091-.365c0-.055.076-.1.153-.091A.162.162,0,0,1,255.842,174.492Z" transform="translate(-133.615 -94.77)"/><path class="g" d="M92.959,290.6h-.11a1.065,1.065,0,0,1-.718-.359.976.976,0,0,1-.237-.741l2.243-21.491a1.044,1.044,0,0,1,1.155-.9,1.023,1.023,0,0,1,.945,1.105L93.989,289.7A1.033,1.033,0,0,1,92.959,290.6Z" transform="translate(-48.043 -145.094)"/><path class="g" d="M144.407,291.407a1.028,1.028,0,0,1-1.05-1v-6.363a1,1,0,0,1,.5-.931,1.1,1.1,0,0,1,1.1,0,1,1,0,0,1,.5.931V290.4a.984.984,0,0,1-.309.712A1.074,1.074,0,0,1,144.407,291.407Z" transform="translate(-74.946 -153.711)"/><path class="d" d="M137.328,251.8,110.478,237,85.77,249.1s26.149,14.59,26.841,14.59S137.328,251.8,137.328,251.8Z" transform="translate(-44.844 -128.744)"/><path class="h" d="M99.394,217.562,73.269,203s-1.542.521-.907,3.38c.477,2.183,3.059,14.864,4.248,20.747A6.6,6.6,0,0,0,80,231.6l25.514,13.612Z" transform="translate(-37.755 -110.274)"/><path class="g" d="M186.409,297.806a1.047,1.047,0,0,1-1.04-.84l-4.157-23.2a1.017,1.017,0,0,1,.868-1.115,1.054,1.054,0,0,1,1.208.773l4.157,23.2a.967.967,0,0,1-.177.752,1.052,1.052,0,0,1-.682.409A.77.77,0,0,1,186.409,297.806Z" transform="translate(-94.731 -148.102)"/><path class="g" d="M138.224,316.265a1.039,1.039,0,0,1-1.055-.978l-.654-19.4a6.256,6.256,0,0,1,.721-3.134l.377-.722a1.09,1.09,0,0,1,1.432-.457,1,1,0,0,1,.477,1.37l-.382.722a4.4,4.4,0,0,0-.477,2.165l.654,19.4a.976.976,0,0,1-.282.721,1.067,1.067,0,0,1-.734.315Z" transform="translate(-71.369 -158.329)"/><path class="j" d="M134.6,263.236a3.177,3.177,0,0,1-3.131-2.435l-5.379-24.9a1.012,1.012,0,0,1,.821-1.192,1.055,1.055,0,0,1,1.246.786l5.374,24.917a1.032,1.032,0,0,0,.6.726,1.137,1.137,0,0,0,.955,0l21.873-10.963a1.1,1.1,0,0,1,1.094-.006,1,1,0,0,1,.511.926,1.011,1.011,0,0,1-.622.862l-21.878,10.94A3.344,3.344,0,0,1,134.6,263.236Z" transform="translate(-65.908 -127.486)"/><path class="g" d="M362.118,287.045h.105a1.065,1.065,0,0,0,.72-.361.976.976,0,0,0,.235-.744l-2.243-21.491a1.044,1.044,0,0,0-1.155-.9,1.023,1.023,0,0,0-.945,1.105l2.238,21.482A1.033,1.033,0,0,0,362.118,287.045Z" transform="translate(-187.583 -143.16)"/><path class="g" d="M313.127,287.891a1.033,1.033,0,0,0,1.055-1.009v-6.363a1,1,0,0,0-.5-.93,1.1,1.1,0,0,0-1.1,0,1,1,0,0,0-.5.93v6.363a.983.983,0,0,0,.306.714A1.075,1.075,0,0,0,313.127,287.891Z" transform="translate(-163.143 -151.799)"/><path class="d" d="M266,248.253l26.851-14.813,24.732,12.132s-26.149,14.59-26.841,14.59S266,248.253,266,248.253Z" transform="translate(-139.058 -126.81)"/><path class="h" d="M323.968,214.041l26.125-14.571s1.542.521.907,3.38c-.477,2.183-3.059,14.868-4.252,20.747a6.562,6.562,0,0,1-3.389,4.476L317.84,241.69Z" transform="translate(-166.156 -108.356)"/><path class="g" d="M266.584,294.16a1.038,1.038,0,0,0,1.036-.836l4.162-23.2a.984.984,0,0,0-.339-.992,1.092,1.092,0,0,0-1.075-.175,1.017,1.017,0,0,0-.662.828l-4.162,23.2a.975.975,0,0,0,.18.754,1.061,1.061,0,0,0,.684.411A1.147,1.147,0,0,0,266.584,294.16Z" transform="translate(-138.811 -146.063)"/><path class="g" d="M318.229,312.765a1.035,1.035,0,0,0,1.055-.973l.654-19.409a6.3,6.3,0,0,0-.721-3.133l-.382-.717a1.077,1.077,0,0,0-1.418-.443.989.989,0,0,0-.463,1.357l.377.722a4.335,4.335,0,0,1,.5,2.161l-.654,19.413a.981.981,0,0,0,.282.723,1.072,1.072,0,0,0,.735.318Z" transform="translate(-165.634 -156.437)"/><path class="j" d="M289.694,259.645a3.177,3.177,0,0,0,3.131-2.435l5.374-24.9a.981.981,0,0,0-.3-1.007,1.09,1.09,0,0,0-1.072-.211,1.021,1.021,0,0,0-.691.812L290.763,256.8a1.061,1.061,0,0,1-.6.725,1.142,1.142,0,0,1-.968-.013l-21.887-10.963a1.078,1.078,0,0,0-1.425.422.988.988,0,0,0,.442,1.364l21.887,10.99a3.348,3.348,0,0,0,1.484.32Z" transform="translate(-138.932 -125.503)"/><path class="n" d="M302.464,120.389s.477-7.706-4.214-6.582c-3.179.758-1.909,6.226-1.909,6.23.477,4.486.706,9.953-.22,11.255-1.389,1.95-5,4.993-7.937,7.308l-1.909,1.032s-1.637-.151-1.947-.21a3.679,3.679,0,0,0-2.024.457,7.267,7.267,0,0,1-3.374.763c-.616-.178-.8,1.233.616,1.233s2.148-.525,2.329,0-1.351,1.941-2.515,2.055-1.909.059-2.024.457.554.649,1.432.763a6.688,6.688,0,0,0,4.539-.352c2.086-1,3.789-2.444,4.73-2.809,0,.046,3.665-1.909,7.059-3.732,3.5-1.882,6.758-4.307,7.3-6.6S302.783,123.724,302.464,120.389Z" transform="translate(-144.977 -61.762)"/><path class="g" d="M319.515,111.626s4.443-.457,4.329,9.643c0,0-1.79,3.2-7.335.384C316.5,121.653,314.3,111.613,319.515,111.626Z" transform="translate(-165.216 -60.636)"/></g></g></g></svg>